<svg width="34" height="18" viewBox="0 0 34 18" fill="none" xmlns="http://www.w3.org/2000/svg">
<path d="M16.8272 1.59829L5.76586 7.76216C3.72761 8.89797 3.70932 11.8237 5.73322 12.9849L5.90174 13.0816C6.85475 13.6284 8.03044 13.6104 8.96633 13.0348L19.6701 6.45166C20.8126 5.74901 21.3001 4.33748 20.8347 3.07954C20.236 1.46108 18.3346 0.758292 16.8272 1.59829Z" fill="white"/>
<path d="M27.8272 3.59829L16.7659 9.76216C14.7276 10.898 14.7093 13.8237 16.7332 14.9849L16.9017 15.0816C17.8548 15.6284 19.0304 15.6104 19.9663 15.0348L30.6701 8.45166C31.8126 7.74901 32.3001 6.33748 31.8347 5.07954C31.236 3.46108 29.3346 2.75829 27.8272 3.59829Z" fill="white"/>
</svg>
