<svg width="40" height="40" viewBox="0 0 40 40" fill="none" xmlns="http://www.w3.org/2000/svg">
<path opacity="0.62" d="M35.5104 18.0635C36.1604 18.0635 36.6771 17.5468 36.6771 16.8968V15.3468C36.6771 8.51351 34.5938 6.43018 27.7604 6.43018H12.2604C5.42708 6.43018 3.34375 8.51351 3.34375 15.3468V16.1302C3.34375 16.7802 3.86042 17.2968 4.51042 17.2968C6.01042 17.2968 7.22708 18.5135 7.22708 20.0135C7.22708 21.5135 6.01042 22.7135 4.51042 22.7135C3.86042 22.7135 3.34375 23.2302 3.34375 23.8802V24.6635C3.34375 31.4968 5.42708 33.5802 12.2604 33.5802H27.7604C34.5938 33.5802 36.6771 31.4968 36.6771 24.6635C36.6771 24.0135 36.1604 23.4968 35.5104 23.4968C34.0104 23.4968 32.7938 22.2802 32.7938 20.7802C32.7938 19.2802 34.0104 18.0635 35.5104 18.0635Z" fill="#FD8703"/>
<path d="M24.9861 26.4632C24.0527 26.4632 23.3027 25.7132 23.3027 24.7965C23.3027 23.8799 24.0527 23.1299 24.9694 23.1299C25.8861 23.1299 26.6361 23.8799 26.6361 24.7965C26.6361 25.7132 25.9194 26.4632 24.9861 26.4632Z" fill="white"/>
<path d="M14.9861 18.1351C14.0527 18.1351 13.3027 17.3851 13.3027 16.4684C13.3027 15.5518 14.0527 14.8018 14.9694 14.8018C15.8861 14.8018 16.6361 15.5518 16.6361 16.4684C16.6361 17.3851 15.9194 18.1351 14.9861 18.1351Z" fill="white"/>
<path d="M14.3786 27.3839C14.062 27.3839 13.7453 27.2672 13.4953 27.0172C13.012 26.5339 13.012 25.7339 13.4953 25.2506L24.712 14.0339C25.1953 13.5506 25.9953 13.5506 26.4786 14.0339C26.962 14.5172 26.962 15.3172 26.4786 15.8006L15.262 27.0172C15.0286 27.2672 14.6953 27.3839 14.3786 27.3839Z" fill="white"/>
</svg>
